<svg xmlns="http://www.w3.org/2000/svg" viewBox="0 0 512 512">
    <g fill="#FF8C00" transform="translate(0,512) scale(0.1,-0.1)">
        <path d="M4105 4944 c-33 -7 -69 -16 -81 -19 -37 -9 -117 -47 -172 -82 -234
-149 -368 -444 -322 -709 6 -32 13 -66 16 -74 3 -8 5 -15 4 -15 -1 0 3 -12 9
-27 11 -30 5 -62 -10 -52 -5 3 -12 -2 -15 -10 -3 -9 -9 -14 -13 -12 -11 6
-484 -318 -505 -346 -25 -35 -29 -143 -6 -158 8 -5 11 -10 6 -10 -5 0 1 -11
14 -25 13 -14 29 -25 36 -25 7 0 14 -5 16 -11 2 -7 27 -12 60 -13 l56 0 266
177 c146 97 270 178 275 179 5 2 33 -15 62 -37 29 -22 55 -38 57 -37 3 2 8 -1
11 -6 17 -26 161 -84 249 -100 77 -13 274 -5 304 14 4 3 20 7 34 10 39 7 154
64 154 76 0 6 3 8 7 5 17 -18 172 129 226 214 35 56 73 136 82 173 28 117 35
160 35 216 0 56 -7 99 -35 216 -9 37 -47 117 -82 173 -54 85 -209 232 -226
214 -4 -3 -7 -1 -7 5 0 7 -7 12 -15 12 -8 0 -15 4 -15 9 0 8 -83 46 -125 56
-155 39 -246 44 -350 19z m254 -324 c135 -45 216 -125 260 -258 47 -139 14
-281 -94 -403 -60 -68 -183 -119 -285 -119 -174 0 -322 109 -379 278 -47 138
-13 286 93 401 97 105 267 148 405 101z M1420 3985 c-47 -7 -103 -16 -125 -19
-104 -17 -435 -152 -435 -178 0 -4 -5 -8 -10 -8 -28 0 -161 -103 -264 -205
-93 -91 -206 -237 -206 -265 0 -5 -4 -10 -8 -10 -14 0 -99 -179 -131 -273 -16
-48 -28 -87 -25 -87 3 0 0 -8 -5 -19 -6 -10 -13 -33 -16 -52 -45 -278 -45
-340 0 -618 3 -19 10 -42 16 -52 5 -11 8 -19 5 -19 -3 0 8 -38 24 -84 31 -92
119 -276 132 -276 4 0 8 -5 8 -11 0 -15 79 -129 90 -129 6 0 10 -5 10 -11 0
-19 119 -144 212 -222 54 -46 144 -107 157 -107 5 0 11 -4 13 -9 11 -29 328
-159 431 -176 259 -44 342 -44 615 0 105 17 432 151 432 177 0 4 5 8 10 8 14
0 102 59 159 107 73 61 211 205 211 219 0 8 4 14 10 14 11 0 90 114 90 129 0
6 4 11 8 11 25 0 161 330 177 430 45 285 45 335 0 620 -15 91 -141 406 -173
430 -4 3 -13 16 -20 30 -41 81 -188 246 -303 343 -57 48 -145 107 -159 107 -5
0 -10 4 -10 8 0 14 -177 99 -272 131 -49 16 -88 28 -88 25 0 -3 -9 0 -19 5
-10 6 -34 13 -52 16 -219 37 -344 42 -489 20z m390 -743 c40 -20 77 -70 85
-116 8 -39 -273 -1168 -300 -1210 -11 -16 -42 -39 -71 -52 -44 -20 -57 -21
-93 -12 -55 14 -105 62 -121 115 -12 40 -6 68 130 615 78 315 150 586 159 603
37 66 139 93 211 57z m-749 -205 c69 -47 96 -121 69 -194 -6 -15 -68 -85 -137
-155 l-126 -126 124 -126 c68 -69 129 -136 136 -148 17 -32 16 -104 -3 -144
-30 -63 -114 -98 -191 -80 -31 8 -414 382 -439 428 -18 35 -18 101 0 136 21
38 396 409 426 421 45 18 105 13 141 -12z m1216 12 c36 -12 399 -372 426 -421
21 -39 22 -87 3 -131 -8 -18 -103 -121 -212 -229 -170 -168 -205 -198 -239
-206 -106 -22 -195 46 -195 150 0 26 5 58 11 72 6 13 68 81 137 150 l126 126
-131 132 c-80 81 -134 144 -138 161 -11 43 0 112 23 145 39 55 118 76 189 51z
M3105 1762 c-11 -2 -25 -12 -32 -21 -7 -9 -13 -13 -13 -9 0 14 -41 -26 -56
-54 -17 -32 -18 -101 -3 -131 17 -33 61 -77 71 -71 4 3 8 1 8 -5 0 -13 476
-331 484 -324 11 11 6 -11 -16 -77 -32 -97 -32 -286 0 -390 44 -140 121 -257
237 -355 30 -26 61 -48 69 -49 8 -1 23 -9 33 -18 19 -17 99 -54 136 -63 161
-38 220 -41 344 -21 82 13 227 72 245 100 4 6 8 7 8 3 0 -29 189 151 211 202
8 17 17 31 20 31 11 0 68 133 85 200 23 87 23 253 0 340 -17 67 -74 200 -85
200 -3 0 -12 14 -20 31 -22 51 -211 231 -211 202 0 -4 -4 -3 -8 3 -11 18 -129
74 -155 74 -13 0 -27 4 -33 10 -32 32 -336 32 -368 0 -6 -6 -20 -10 -33 -10
-25 0 -144 -56 -154 -72 -3 -5 -9 -9 -13 -8 -4 1 -30 -16 -58 -37 -27 -21 -54
-37 -59 -35 -5 1 -127 81 -272 177 -266 177 -298 193 -362 177z m1254 -502
c135 -45 216 -125 260 -258 47 -139 14 -281 -94 -403 -89 -101 -268 -145 -404
-99 -135 45 -216 125 -260 258 -47 138 -13 286 93 401 97 105 267 148 405 101z"/>
    </g>
</svg>